<?xml version="1.0" encoding="UTF-8"?>
<svg id="_레이어_2" data-name="레이어 2" xmlns="http://www.w3.org/2000/svg" viewBox="0 0 369.87 323.06">
  <defs>
    <style>
      .cls-1 {
        fill: #000;
      }

      .cls-1, .cls-2 {
        stroke-width: 0px;
      }

      .cls-2 {
        fill: none;
      }
    </style>
  </defs>
  <g id="_레이어_1-2" data-name="레이어 1">
    <path class="cls-1" d="M314.42,132.59c-27.22-18.45-66.63-7.94-93.64-51.3l-14.62-23.47c-12.45-19.98-30.96-39.51-53.82-47.15-9.12-3.05-18.09-5.15-27.76-5.6-16.61-.77-32.85,1.66-48.08,8.27-20.05,8.7-36.49,24-45.42,43.93-5.3,11.84-8.37,23.48-8.89,41.55l-1.3,78.66c-.01,1.71-.11,6.08-.43,7.81-.19,1.06-4.44-1.28-4.52-2.36-.19-2.75-.31-6.15-.31-9.06l.63-72.5c0-3.91.76-14.36,1.4-19.27,3.35-25.8,16.82-47.43,38.08-63.02C76.79,3.66,102.72-1.61,128.58.41c18.28,1.43,35.22,7.46,49.91,18.45,11.1,8.3,20.43,18.12,27.81,29.84l19.66,31.19c7.47,11.85,17.6,20.81,30.28,26.59,19.02,8.68,32.88,8.37,50.11,15.93,27.05,11.88,44.49,37.22,46.23,66.6l.65,10.97c.39,6.57.4,19.61-.52,25.79-.18,1.23-4.55,6.46-4.64.2-.52-23.9,2.31-43.69-8.75-65.77-5.7-11.38-14.36-20.47-24.91-27.62Z"/>
    <g>
      <g>
        <path class="cls-1" d="M200.48,319.25c-14.59,5.66-30.56,4.98-44.28-1.8-12.91-6.38-20.2-19.12-20.73-33.25-.44-12.01,3.9-22.49,12.49-30.66s18.87-11.78,30.54-11.73c10.49.05,20.32,1.96,29.07,7.7,13.14,8.62,19.46,23.28,17.17,38.92-2.04,13.92-10.69,25.57-24.26,30.83ZM178.81,317.43c10.69,1.36,20.04-4.23,23.73-14.19,4.19-11.27,4.26-23.85.76-35.43-4.01-13.27-17.09-24.45-32-20.36-7.06,1.94-11.83,7.62-14.31,14.6-2.99,8.41-2.99,17.32-2.12,26.31,1.33,13.69,8.63,27.13,23.93,29.07Z"/>
        <path class="cls-2" d="M178.81,317.43c-15.29-1.94-22.59-15.37-23.93-29.07-.88-8.99-.87-17.91,2.12-26.31,2.48-6.98,7.25-12.66,14.31-14.6,14.91-4.1,27.99,7.08,32,20.36,3.5,11.58,3.42,24.16-.76,35.43-3.7,9.96-13.04,15.54-23.73,14.19Z"/>
        <path class="cls-1" d="M314.76,295.03c7.86,18.65,30.35,22.6,46.9,12.28,1.26-.78,2.96-1.07,4.46-.14-5.87,9.01-15.34,14.14-25.79,15.24-22.72,2.39-43.39-10.15-46.04-33.66-.44-3.86-.52-7.24-.07-11.11,2.46-21.39,20.9-37,42.45-35.77,5.67.32,10.81.87,15.95,3.17,12.62,5.64,17,16.22,17.26,30l-58.05.05c-.4,6.96.31,13.7,2.94,19.94ZM352.74,270.69c0-4.34-.06-7.59-.9-10.84-2.35-9.15-10.17-14.22-19.3-13.64-13.66.87-19.51,11.89-20.16,24.67l40.36-.18Z"/>
        <path class="cls-2" d="M352.74,270.69l-40.36.18c.64-12.78,6.5-23.8,20.16-24.67,9.14-.58,16.95,4.48,19.3,13.64.84,3.26.91,6.5.9,10.84Z"/>
        <path class="cls-1" d="M259.34,273.74l-.17,32.23c0,1.89.8,4.7,1.41,6.35,1.94,5.23,8.54,4.6,10.17,6.53.3.36-.98,1.56-1.49,1.56l-35.69-.04c-3.36-2.96,8.49-2.35,8.5-9.64l.05-50.17c0-8.06-8.49-7.45-8.09-10.41l19.51-7.41c1.7-.65,3.65-.92,5.49-1.04l.2,18.79c1.62-1.4,2.46-2.41,3.28-3.81,5.29-8.95,10.94-16.36,22.63-14.86,2.46.31,5,1.52,6.27,3.23,3.62,4.87.02,11.38-1.91,17-3.43-1.8-4.68-7.2-12.15-7.71-6.59-.44-12.12,2.19-15.1,8.18-1.56,3.15-2.89,7.14-2.91,11.22Z"/>
      </g>
      <g>
        <path class="cls-1" d="M70.74,277.6c-8.44-12.69-25.2-13.01-38.86-12.35l.05,40.12c.02,12.77,9.46,11.23,11.03,13.57.27.4-.77,1.47-1.44,1.47l-39.13-.05c-.41,0-1.66-.63-1.48-.9,2.23-3.34,12.26-.27,12.23-13.58l-.19-80.06c-.02-7.6-4.74-13.23-11.33-15.38-.31-.1-1.13-.61-1.42-.75-.43-.2-.21-1.86.95-1.86h83.05c1.04,3.34,5.69,22.72,4.16,23.4-.29.13-1.04-.06-1.41-.36-19.06-15.21-29.44-18-55.05-17.97v48.09c15.04.39,29.33-.05,39.27-12.06.44-.53,2.57-.7,2.57.03l-.03,29.14c0,.85-2.5.2-2.97-.51Z"/>
        <path class="cls-1" d="M97.49,319.86l2.21-4.52c.91-1.87,2.3-3.41,2.29-5.78l-.06-46.6c-.01-7.61-5.95-8.03-9.65-11.43,4.71-2.65,9.01-3.77,13.73-5.57,4.2-1.6,7.69-4.21,13.07-4.61l.03,67.61c0,10.3,12.13,7.32,9.31,11.42l-27.48.11c-.8,0-2.22-.33-3.45-.63Z"/>
        <path class="cls-1" d="M115.5,232.13c-3.85,2.72-8.84,5.46-13.28,7.76-1.3.58-3.04,1.35-4.34.55-2.11-1.94.99-5.75.57-8.32-.21-5.3-2.9-10.77-.92-15.99,3.43-7.48,15.93-7.81,20.36-1.1,3.67,5.15,2.71,13.24-2.27,17l-.12.1Z"/>
      </g>
    </g>
  </g>
</svg>